<svg width="93" height="134" viewBox="0 0 93 134" fill="none" xmlns="http://www.w3.org/2000/svg">
<g clip-path="url(#clip0_15_406)">
<rect width="42" height="12" rx="6" fill="white"/>
<rect y="52" width="40" height="12" rx="6" fill="white"/>
<rect y="6" width="11" height="52" fill="white"/>
<line x1="42.25" y1="63" x2="42.25" y2="64" stroke="black" stroke-width="0.5"/>
<path d="M43.127 62.9648C43.3605 63.6064 42.5786 64 41.8959 64H33H32.5506C32.517 64 32.4835 63.996 32.4508 63.9881C32.312 63.9547 32.1992 63.8539 32.1503 63.7197L13.277 11.8657C13.0938 11.3621 13 10.8304 13 10.2945C13 7.04201 16.287 4.81959 19.3053 6.03131L20.6307 6.56338C22.0968 7.15197 23.2433 8.33655 23.7837 9.82114L43.127 62.9648Z" fill="white"/>
<rect width="42" height="12" rx="6" transform="matrix(-1 0 0 1 92.389 0)" fill="white"/>
<rect width="40" height="12" rx="6" transform="matrix(-1 0 0 1 92.389 52)" fill="white"/>
<rect width="11" height="52" transform="matrix(-1 0 0 1 92.389 6)" fill="white"/>
<line y1="-0.25" x2="1" y2="-0.25" transform="matrix(0 1 1 0 50.389 63)" stroke="black" stroke-width="0.5"/>
<path d="M49.2621 62.9648C49.0286 63.6064 49.8104 64 50.4931 64H59.389H59.8384C59.8721 64 59.9056 63.996 59.9382 63.9881C60.0771 63.9547 60.1899 63.8539 60.2387 63.7197L79.112 11.8657C79.2953 11.3621 79.389 10.8304 79.389 10.2945C79.389 7.04201 76.102 4.81959 73.0837 6.03131L71.7583 6.56338C70.2922 7.15197 69.1457 8.33655 68.6054 9.82114L49.2621 62.9648Z" fill="white"/>
<rect width="42" height="12" rx="6" transform="matrix(1 0 0 -1 0 134)" fill="white"/>
<rect width="40" height="12" rx="6" transform="matrix(1 0 0 -1 0 82)" fill="white"/>
<rect width="11" height="52" transform="matrix(1 0 0 -1 0 128)" fill="white"/>
<line y1="-0.25" x2="1" y2="-0.25" transform="matrix(0 -1 -1 0 42 71)" stroke="black" stroke-width="0.5"/>
<path d="M43.127 71.0352C43.3605 70.3936 42.5786 70 41.8959 70H33H32.5506C32.517 70 32.4835 70.004 32.4508 70.0119C32.312 70.0453 32.1992 70.1461 32.1503 70.2803L13.277 122.134C13.0938 122.638 13 123.17 13 123.706C13 126.958 16.287 129.18 19.3053 127.969L20.6307 127.437C22.0968 126.848 23.2433 125.663 23.7837 124.179L43.127 71.0352Z" fill="white"/>
<rect x="92.389" y="134" width="42" height="12" rx="6" transform="rotate(-180 92.389 134)" fill="white"/>
<rect x="92.389" y="82" width="40" height="12" rx="6" transform="rotate(-180 92.389 82)" fill="white"/>
<rect x="92.389" y="128" width="11" height="52" transform="rotate(-180 92.389 128)" fill="white"/>
<line x1="50.139" y1="71" x2="50.139" y2="70" stroke="black" stroke-width="0.5"/>
<path d="M49.2621 71.0352C49.0286 70.3936 49.8104 70 50.4931 70H59.389H59.8384C59.8721 70 59.9056 70.004 59.9382 70.0119C60.0771 70.0453 60.1899 70.1461 60.2387 70.2803L79.112 122.134C79.2953 122.638 79.389 123.17 79.389 123.706C79.389 126.958 76.102 129.18 73.0837 127.969L71.7583 127.437C70.2922 126.848 69.1457 125.663 68.6054 124.179L49.2621 71.0352Z" fill="white"/>
</g>
<defs>
<clipPath id="clip0_15_406">
<rect width="92.389" height="134" fill="white"/>
</clipPath>
</defs>
</svg>
